/* XPM */
static char *_3aed1ad34db4e6cee70bb861eb0381fjPQyYuG3k174iwq4[] = {
/* columns rows colors chars-per-pixel */
"32 32 53 1 ",
"  c None",
". c black",
"X c #4B4C51",
"o c #505256",
"O c #66797E",
"+ c red",
"@ c #6E8187",
"# c #6D9398",
"$ c #71999D",
"% c #739A9D",
"& c #839D9F",
"* c #839E9F",
"= c #87A1A3",
"- c #86A1A5",
"; c #8AA4A6",
": c #8BA6A7",
"> c #8BA8AB",
", c #92CDCE",
"< c #98D6D7",
"1 c #99D6D7",
"2 c #9CD6D7",
"3 c #99D6D8",
"4 c #99D7D8",
"5 c #9AD7D8",
"6 c #9CD7D9",
"7 c #9ED8D8",
"8 c #A1D9DA",
"9 c #A0DADB",
"0 c #A2DADB",
"q c #A3DBDB",
"w c #A3DBDD",
"e c #A5DCDD",
"r c #A7DDDC",
"t c #A6DDDD",
"y c #A4DEDD",
"u c #A7DEDD",
"i c #ACDBD9",
"p c #AADEDE",
"a c #ACDEDE",
"s c #B0E0DE",
"d c #B1E1DF",
"f c #AEE0E0",
"g c #AEE1E3",
"h c #B0E0E0",
"j c #B3E2E1",
"k c #B5E3E2",
"l c #B6E3E2",
"z c #B7E3E2",
"x c #B7E3E3",
"c c #B7E3E4",
"v c #B8E3E2",
"b c #B9E3E2",
"n c #B9E5E4",
/* pixels */
"                                ",
"                                ",
"                                ",
"                                ",
"                                ",
"                                ",
" .............................. ",
" .O*****======:::::::::::::::@. ",
" .$2bbbbbbbbbb.....b.bbbbbbzz>. ",
" .$110jzzzzz..zzzz...zzzzzzzz>. ",
" .$1116tazz..zzzzzz..zzzzzzzz>. ",
" .$1111150s..zzzzzzz.zzzzzzzz>. ",
" .$1111111..nzzzzzzz.zzzzzzzz>. ",
" .$1111111..50fzzzzzzzzzzzzzz>. ",
" .$1111111..115tpzzzzzzzzzzzz>. ",
" .$1111111..111150fcczzzzzzzz>. ",
" .$11111111..1111111tzzzzzzzz>. ",
" .$11111111..11111111.jzzzzzz>. ",
" .$111111111...1111..11wtszzz>. ",
" .$11111111111.....1111117tzz>. ",
" .#,,,,,,,,,,,,,,,,,,,,,,,,,i-. ",
" .............................. ",
" X............................o ",
"              ....              ",
"              .++.              ",
"              ....              ",
"           ..........           ",
"                                ",
"                                ",
"                                ",
"                                ",
"                                "
};