/* XPM */
static char *fa0992f4ca4c4ed5b12979f5d7e73756qp7ThP37XX84l06L[] = {
/* columns rows colors chars-per-pixel */
"32 32 3 1 ",
"  c #744141",
". c #AC5C56",
"X c #B57A6F",
/* pixels */
"..............  XXXXXXXXXXXXXX  ",
"..............  XXXXXXXXXXXXXX  ",
"..............  XXXXXXXXXXXXXX  ",
"..............  XXXXXXXXXXXXXX  ",
"..............  XXXXXXXXXXXXXX  ",
"..............  XXXXXXXXXXXXXX  ",
"..............  XXXXXXXXXXXXXX  ",
"..............  XXXXXXXXXXXXXX  ",
"..............  XXXXXXXXXXXXXX  ",
"..............  XXXXXXXXXXXXXX  ",
"..............  XXXXXXXXXXXXXX  ",
"..............  XXXXXXXXXXXXXX  ",
"..............                  ",
"..............                  ",
"..............  ..............  ",
"..............  ..............  ",
"                ..............  ",
"                ..............  ",
"XXXXXXXXXXXXXX  ..............  ",
"XXXXXXXXXXXXXX  ..............  ",
"XXXXXXXXXXXXXX  ..............  ",
"XXXXXXXXXXXXXX  ..............  ",
"XXXXXXXXXXXXXX  ..............  ",
"XXXXXXXXXXXXXX  ..............  ",
"XXXXXXXXXXXXXX  ..............  ",
"XXXXXXXXXXXXXX  ..............  ",
"XXXXXXXXXXXXXX  ..............  ",
"XXXXXXXXXXXXXX  ..............  ",
"XXXXXXXXXXXXXX  ..............  ",
"XXXXXXXXXXXXXX  ..............  ",
"                                ",
"                                "
};