/* XPM */
static char *d9f4b16e694a4d86c7f391152a2224f2EUbrGsD8XT8AvElk[] = {
/* columns rows colors chars-per-pixel */
"32 32 6 1 ",
"  c None",
". c black",
"X c #161616",
"o c #393939",
"O c gray45",
"+ c white",
/* pixels */
"            ........            ",
"         ...++++++++...         ",
"       ..+++OOOOOOOO+++..       ",
"      .++OOOOOOOOOOOOOO++.      ",
"     .++OOOOOOOOOOOOOOOO++.     ",
"    .+OOOOOOooooooooOOOOOO+.    ",
"   .+OOOOOooooooooooooOOOOO+.   ",
"  .++OOOOooooooooooooooOOOO++.  ",
"  .+OOOOoooooXXXXXXoooooOOOO+.  ",
" .+OOOOooXoXXXXXXXXXXoXooOOOO+. ",
" .+OOOooooXXXXXXXXXXXXooooOOO+. ",
" .+OOOoooXXXXX....XXXXXoooOOO+. ",
".+OOOooooXXX........XXXooooOOO+.",
".+OOOoooXXXX........XXXXoooOOO+.",
".+OOOoooXXX..........XXXoooOOO+.",
".+OOOoooXXX..........XXXoooOOO+.",
".+OOOoooXXX..........XXXoooOOO+.",
".+OOOoooXXX..........XXXoooOOO+.",
".+OOOoooXXXX........XXXXoooOOO+.",
".+OOOooooXXX........XXXooooOOO+.",
" .+OOOoooXXXXX....XXXXXoooOOO+. ",
" .+OOOooooXXXXXXXXXXXXooooOOO+. ",
" .+OOOOooXoXXXXXXXXXXoXooOOOO+. ",
"  .+OOOOoooooXXXXXXoooooOOOO+.  ",
"  .++OOOOooooooooooooooOOOO++.  ",
"   .+OOOOOooooooooooooOOOOO+.   ",
"    .+OOOOOOooooooooOOOOOO+.    ",
"     .++OOOOOOOOOOOOOOOO++.     ",
"      .++OOOOOOOOOOOOOO+ .      ",
"       ..+++OOOOOOOO+++..       ",
"         ...++++++++...         ",
"            ........            "
};