    /* XPM */
static char *_b3adaf449214bd1b07a4c8016f5c08evipX7XONV3D1LJMC[] = {
/* columns rows colors chars-per-pixel */
"32 32 205 2 ",
"   c None",
".  c #393950",
"X  c #3A3A50",
"o  c #3A3A51",
"O  c #3C3C52",
"+  c #3D3D55",
"@  c #3E3E54",
"#  c #463E4E",
"$  c #503F4F",
"%  c #5C3B4E",
"&  c #4E404F",
"*  c #55424B",
"=  c #51414C",
"-  c #55404F",
";  c #58434A",
":  c #4B4050",
">  c #4D4555",
",  c #4F4555",
"<  c #464359",
"1  c #45455D",
"2  c #45455E",
"3  c #46465E",
"4  c #47475E",
"5  c #46465F",
"6  c #4F4259",
"7  c #4A465A",
"8  c #564650",
"9  c #5F4052",
"0  c #5B4550",
"q  c #534758",
"w  c #554458",
"e  c #5E4358",
"r  c #584658",
"t  c #5E4458",
"y  c #584958",
"u  c #62454E",
"i  c #6C454C",
"p  c #604F4F",
"a  c #6F494D",
"s  c #7E434C",
"d  c #604050",
"f  c #674051",
"g  c #624255",
"h  c #634851",
"j  c #674850",
"k  c #644258",
"l  c #604D5B",
"z  c #784952",
"x  c #685557",
"c  c #725A57",
"v  c #7D5E52",
"b  c #766255",
"n  c #7E6251",
"m  c #7F6552",
"M  c #796355",
"N  c #7A6455",
"B  c #7F6754",
"V  c #484960",
"C  c #494A61",
"Z  c #4A4A62",
"A  c #4C4D65",
"S  c #4C4D66",
"D  c #4D4E67",
"F  c #4F4F67",
"G  c #4F5169",
"H  c #52546B",
"J  c #555971",
"K  c #575872",
"L  c #565972",
"P  c #555A72",
"I  c #5C5F78",
"U  c #735E64",
"Y  c #745F64",
"T  c #853E4C",
"R  c #933E4C",
"E  c #86464E",
"W  c #8B404C",
"Q  c #8D424D",
"!  c #80494E",
"~  c #82494E",
"^  c #84484F",
"/  c #84494F",
"(  c #8A494F",
")  c #814553",
"_  c #884953",
"`  c #8E4950",
"'  c #884854",
"]  c #914651",
"[  c #934A50",
"{  c #994A50",
"}  c #9D4A51",
"|  c #994954",
" . c #AE4A52",
".. c #806751",
"X. c #826851",
"o. c #876A51",
"O. c #896C52",
"+. c #8A6D52",
"@. c #8C6C51",
"#. c #8C6E51",
"$. c #8D6F51",
"%. c #8D7051",
"&. c #8E7051",
"*. c #8F7051",
"=. c #8F7151",
"-. c #907051",
";. c #907151",
":. c #927250",
">. c #937250",
",. c #947350",
"<. c #957350",
"1. c #987654",
"2. c #9B7852",
"3. c #9C7853",
"4. c #9D7953",
"5. c #99775A",
"6. c #9D7A59",
"7. c #A07B54",
"8. c #A27F5E",
"9. c #A37F5F",
"0. c #836366",
"q. c #876E6F",
"w. c #987B65",
"e. c #9A7C65",
"r. c #96746B",
"t. c #9D716E",
"y. c #9D787C",
"u. c #A37B62",
"i. c #A98158",
"p. c #AD8459",
"a. c #AF865A",
"s. c #AA835E",
"d. c #AB845F",
"f. c #B3885B",
"g. c #B68B5F",
"h. c #B88B5D",
"j. c #BA8D5E",
"k. c #AC8661",
"l. c #B2836D",
"z. c #B1856C",
"x. c #B2846D",
"c. c #B5886F",
"v. c #B6886F",
"b. c #B08270",
"n. c #B48F72",
"m. c #B88971",
"M. c #B48D7D",
"N. c #C28D7C",
"B. c #D1897C",
"V. c #C6927C",
"C. c #CA947E",
"Z. c #646B81",
"A. c #676985",
"S. c #666F86",
"D. c #6A6D82",
"F. c #696E84",
"G. c #6B6C86",
"H. c #6C778A",
"J. c #72758A",
"K. c #71758C",
"L. c #72768D",
"P. c #6E7B90",
"I. c #757B91",
"U. c #A47A83",
"Y. c #A87D84",
"T. c #798095",
"R. c #7D8B9E",
"E. c #AC8185",
"W. c #B38380",
"Q. c #B58A8A",
"!. c #B78D8D",
"~. c #BB8E88",
"^. c #B8958A",
"/. c #8091A5",
"(. c #8F94A9",
"). c #9092AF",
"_. c #9DA3B7",
"`. c #CD9680",
"'. c #D29984",
"]. c #D09E85",
"[. c #D09C86",
"{. c #DC9E8B",
"}. c #D39E91",
"|. c #DA9C90",
" X c #F79C86",
".X c #CEA387",
"XX c #D9A188",
"oX c #DFA992",
"OX c #D8AA9B",
"+X c #F3B08F",
"@X c #E6A593",
"#X c #E6AC96",
"$X c #F6AE9F",
"%X c #E6B79B",
"&X c #FFB893",
"*X c #EEBBA1",
"=X c #F3B5A5",
"-X c #F2B7A7",
";X c #F9B8A5",
":X c #FABCA7",
">X c #FBBFA9",
",X c #FCC0A9",
"<X c #FDC5AC",
"1X c #FDC5AD",
"2X c #FFCBB0",
/* pixels */
"                                                                ",
"                                                                ",
"                    P P P S 2 2 2 2 2 2 2 2                     ",
"                    P P P S 2 2 2 2 2 2 2 2                     ",
"                  P w.k.k.d.s.s.s.s.6.O.O.N 2                   ",
"                P e.g.j.j.j.j.j.j.j.h.i.<.>.b 2                 ",
"                Z 9.j.j.j.j.j.j.j.j.j.a.<.>.B 2                 ",
"                2 9.j.j.j.j.j.j.j.j.j.a.<.>.B 2                 ",
"            2 2 M 1.f.j.j.j.j.j.j.j.a.2.<.>.O.c 2 2             ",
"            @ @ o.<.4.7.7.7.7.7.7.7.4.>.%.%.#.m @ @             ",
"            X X X.<.<.<.<.>.>.>.>.>.>.%.%.%.%...X X             ",
"            X X ..>.<.<.<.>.%.%.%.%.%.%.%.%.%...X X             ",
"            X X n %.>.>.>.%.z.`.[.n.%.%.%.%.%...X X             ",
"            X X v #.%.%.c.C.#X>X1X.X#.#.%.%.#.n X X             ",
"            X X v #.m.V.@X;X1X2X2X.Xu.l.%.%.#.v X X             ",
"            X X v #.{.$X$X,X2X2X2X.Xc.'.%.%.#.v X X             ",
"            X X v #.oX:X~.OX2X2X2X%XM.r.%.%.#.v X X             ",
"            X X v z.*X2Xq.^.2X2X2X2X^.p %.5.z.v X X             ",
"            X X x |.-X-XW.}.>X>X>X>X}.t.b.N.|.x X X             ",
"                > y.Y.U.U.E.Q.!.!.Q.E.U.U.Y.y.>                 ",
"            X X * 7 2 2 2 2 G P P G 2 2 2 2 7 * X X             ",
"            X X * g r q t 6 P A.A.P < w k e > * X X             ",
"            U Y 8 T E ~ Q % F.).).F.$ s R W i 8 Y U             ",
"          2 +X&X0.h ` } ( - J._._.J.d [ ~ ^ ' 0.&X+X2           ",
"          2 +X&X Xl u a { f J._._.J.& ^  .] l  X&X+X2           ",
"          2 [.XXB.y 0 j _ 9 D.(.(.D.: z | ) y B.XX[.2           ",
"            2 2 O X Z S S Z H I I H Z S S Z X O 2 2             ",
"                  X F.T.T.I.K.K.K.K.I.T.T.F.X                   ",
"                  X P././.S.S 2 2 S S././.P.X                   ",
"                  X H.R.R.Z.S 2 2 S Z.R.R.H.X                   ",
"                  X = ; ; #         # ; ; = X                   ",
"                    X X X             X X X                     "
};                                                                       

