/* XPM */
static char *_cf91a8703e1485df1d6ccfaa5acd4bbP8Xi3A3IPEmTnYDb[] = {
/* columns rows colors chars-per-pixel */
"32 32 196 2 ",
"   c None",
".  c #393950",
"X  c #3A3A50",
"o  c #3A3A51",
"O  c #3D3D55",
"+  c #3E3E54",
"@  c #463E4E",
"#  c #4F3A4F",
"$  c #4E3F4F",
"%  c #5C3A4E",
"&  c #5F3A4F",
"*  c #673B4E",
"=  c #613F4D",
"-  c #7B3F4A",
";  c #7C3F4A",
":  c #7D3F4A",
">  c #7F3E50",
",  c #47404D",
"<  c #4C434D",
"1  c #4E444C",
"2  c #51414C",
"3  c #51454C",
"4  c #58434A",
"5  c #5C464B",
"6  c #56484B",
"7  c #58494A",
"8  c #5A4A4A",
"9  c #5D4B49",
"0  c #45455D",
"q  c #45455E",
"w  c #46465E",
"e  c #47475E",
"r  c #46465F",
"t  c #47475F",
"y  c #4B465B",
"u  c #5B4550",
"i  c #584958",
"p  c #5F4B58",
"a  c #684F47",
"s  c #61434B",
"d  c #62454B",
"f  c #63464A",
"g  c #63474A",
"h  c #60414C",
"j  c #61424C",
"k  c #62454E",
"l  c #66474D",
"z  c #6F414A",
"x  c #654949",
"c  c #64484A",
"v  c #624D48",
"b  c #644F4B",
"n  c #6F4F49",
"m  c #6F494D",
"M  c #75404C",
"N  c #7B404B",
"B  c #7D434C",
"V  c #7E424C",
"C  c #7C494E",
"Z  c #6F5247",
"A  c #6F5446",
"S  c #67514B",
"D  c #69524B",
"F  c #6A534B",
"G  c #6E554C",
"H  c #6F554C",
"J  c #71564C",
"K  c #73574C",
"L  c #76594C",
"P  c #75584E",
"I  c #7A5C4E",
"U  c #7F5E4D",
"Y  c #624751",
"T  c #624951",
"R  c #674850",
"E  c #604D5B",
"W  c #704851",
"Q  c #7C4951",
"!  c #7F4952",
"~  c #645051",
"^  c #725A57",
"/  c #7D5E52",
"(  c #7E5F52",
")  c #7A6455",
"_  c #7C6554",
"`  c #494A61",
"'  c #4A4A62",
"]  c #4B4C64",
"[  c #4C4D65",
"{  c #4C4D66",
"}  c #4D4E67",
"|  c #4F4F67",
" . c #555971",
".. c #565972",
"X. c #555A72",
"o. c #735E64",
"O. c #745F64",
"+. c #5D6177",
"@. c #803E4B",
"#. c #813E4B",
"$. c #833E4B",
"%. c #833E4C",
"&. c #803F4F",
"*. c #91394C",
"=. c #933E4C",
"-. c #943D4C",
";. c #83414C",
":. c #80424C",
">. c #84414C",
",. c #86404C",
"<. c #87404D",
"1. c #8D414C",
"2. c #80494E",
"3. c #84494F",
"4. c #87494F",
"5. c #8A494F",
"6. c #8C494F",
"7. c #8D494F",
"8. c #8E494F",
"9. c #814553",
"0. c #834952",
"q. c #854950",
"w. c #854952",
"e. c #884952",
"r. c #8D4951",
"t. c #824B5B",
"y. c #914651",
"u. c #914A50",
"i. c #934A50",
"p. c #964A50",
"a. c #994A50",
"s. c #994954",
"d. c #9C4954",
"f. c #AE4A52",
"g. c #81604E",
"h. c #82604F",
"j. c #83614F",
"k. c #84614F",
"l. c #836152",
"z. c #856250",
"x. c #866250",
"c. c #876351",
"v. c #8A6552",
"b. c #856A53",
"n. c #8B6A51",
"m. c #8B6952",
"M. c #8A6D52",
"N. c #8C6E51",
"B. c #8D6E51",
"V. c #8E6E51",
"C. c #8F6E51",
"Z. c #8E6F51",
"A. c #8D7051",
"S. c #8F7151",
"D. c #907151",
"F. c #937050",
"G. c #927151",
"H. c #927250",
"J. c #937250",
"K. c #947250",
"L. c #957350",
"P. c #977454",
"I. c #9B7852",
"U. c #9C7853",
"Y. c #9D7953",
"T. c #9D7A59",
"R. c #A07B54",
"E. c #A27F5E",
"W. c #A37F5F",
"Q. c #836366",
"!. c #987B65",
"~. c #9A7C65",
"^. c #A98158",
"/. c #AD8459",
"(. c #AF865A",
"). c #AA835E",
"_. c #AB845F",
"`. c #B3885B",
"'. c #B68B5F",
"]. c #B88B5D",
"[. c #BA8D5E",
"{. c #AC8661",
"}. c #D1887B",
"|. c #646B81",
" X c #666F86",
".X c #696E84",
"XX c #6C778A",
"oX c #6E7B90",
"OX c #798095",
"+X c #7D8B9E",
"@X c #8091A5",
"#X c #CE9984",
"$X c #D79E85",
"%X c #F79C86",
"&X c #F3B08F",
"*X c #FFB893",
/* pixels */
"                                                                ",
"                                                                ",
"                    X.X.X.{ q q q q q q q q                     ",
"                    X.X.X.{ q q q q q q q q                     ",
"                  X.!.{.{._.).).).).T.M.M.) q                   ",
"                X.~.'.[.[.[.[.[.[.[.].^.K.F._ q                 ",
"                ' W.[.[.[.[.[.[.[.[.[.(.K.K.b.q                 ",
"                q W.[.[.[.[.[.[.[.[.[.(.K.K.b.q                 ",
"            q q ^ P.`.[.[.[.[.[.[.[.(.I.K.K.N.^ q q             ",
"            + + ( F.Y.R.R.R.R.R.R.R.Y.K.K.K.N.( + +             ",
"            X X ( N.K.K.K.K.K.K.K.K.K.F.F.A.N.( X X             ",
"            X X ( N.F.K.K.K.K.K.K.K.K.F.A.A.N.( X X             ",
"            X X ( N.A.F.F.F.F.F.F.F.F.A.A.A.N.( X X             ",
"            X X ( n.N.A.A.A.A.A.A.A.A.A.A.N.n.( X X             ",
"            X X ( v.n.n.n.n.n.n.n.n.n.n.n.n.v.( X X             ",
"            X X ( v.v.v.v.v.v.v.v.v.v.v.v.v.v.( X X             ",
"            X X ( v.v.v.v.v.v.v.v.v.v.v.v.v.v.( X X             ",
"            X X ( v.v.v.v.v.v.v.v.v.v.v.v.v.v.( X X             ",
"            X X ~ l.g.U x.g.x.v.x.k.x.g.v.x.I ~ X X             ",
"                $ P b 7 K D H U H D K S U P 5 %                 ",
"            X X l Z , X 9 1 7 A 6 3 7 < A v # *.X X             ",
"            X X l n = % c j f a f s f j a c * %.X X             ",
"            o.O.T Y >.=.N #.; z ; #.- #.z M > T O.o.            ",
"          q &X*XQ.y W 2.1.V >.-.:.:.>.V -.%.y Q.*X&Xq           ",
"          q &X*X%XE y.f.3.p.5.m 6.i.3.a.m k E %X*X&Xq           ",
"          q #X$X}.i 9.s.w.i.6.C 6.i.5.r.R u i }.$X#Xq           ",
"            X X X X ' { t.Q w.d.0.Q e.p { ' X X X X             ",
"                  X .XOX+.] q q q q ] +.OX.XX                   ",
"                  X oX@X@X X{ q q {  X@X@XoXX                   ",
"                  X XX+X+X|.{ q q { |.+X+XXXX                   ",
"                  X 2 4 4 @         @ 4 4 2 X                   ",
"                    X X X             X X X                     "
};

