/* XPM */
static char *_0e357e7506e4b41bb6acc85d2188ec2NtgCcrOu0BdWENNv[] = {
/* columns rows colors chars-per-pixel */
"32 32 207 2 ",
"   c None",
".  c #3E3B4F",
"X  c #393950",
"o  c #3A3A50",
"O  c #3B3B50",
"+  c #3A3A51",
"@  c #3C3C52",
"#  c #3C3C53",
"$  c #3D3D55",
"%  c #3E3E54",
"&  c #3F3F56",
"*  c #403C4F",
"=  c #413C4F",
"-  c #443D4E",
";  c #483F4D",
":  c #4F3D4E",
">  c #503C4E",
",  c #5D3E4C",
"<  c #533F55",
"1  c #5D3D50",
"2  c #723B4D",
"3  c #753C4D",
"4  c #3F4056",
"5  c #4F414C",
"6  c #4E404D",
"7  c #57424F",
"8  c #58434A",
"9  c #5A414D",
"0  c #5A414E",
"q  c #59434F",
"w  c #4E4556",
"e  c #404058",
"r  c #414159",
"t  c #424259",
"y  c #45455D",
"u  c #45455E",
"i  c #46465E",
"p  c #47475E",
"a  c #46465F",
"s  c #47475F",
"d  c #544657",
"f  c #51445C",
"g  c #584258",
"h  c #5F4A5B",
"j  c #62464C",
"k  c #68444F",
"l  c #73464C",
"z  c #644357",
"x  c #654558",
"c  c #714154",
"v  c #7A4352",
"b  c #7E4451",
"n  c #665252",
"m  c #6B5451",
"M  c #685557",
"N  c #705956",
"B  c #7D5E52",
"V  c #756255",
"C  c #766255",
"Z  c #746156",
"A  c #7E6152",
"S  c #7F6054",
"D  c #7F6754",
"F  c #786559",
"G  c #7E6A5C",
"H  c #494B62",
"J  c #4D4E67",
"K  c #4E5068",
"L  c #4F5069",
"P  c #555771",
"I  c #565872",
"U  c #565972",
"Y  c #575A72",
"T  c #605667",
"R  c #645A64",
"E  c #735365",
"W  c #785366",
"Q  c #755B61",
"!  c #5F6076",
"~  c #766266",
"^  c #606379",
"/  c #61657B",
"(  c #61657C",
")  c #82424C",
"_  c #874551",
"`  c #89555D",
"'  c #846253",
"]  c #8A6552",
"[  c #836A53",
"{  c #8B6852",
"}  c #8B6952",
"|  c #8C6B51",
" . c #886C52",
".. c #896E52",
"X. c #8C6C51",
"o. c #8C6D51",
"O. c #8C6E51",
"+. c #8D6E51",
"@. c #8E6E51",
"#. c #8F6E51",
"$. c #8A6F56",
"%. c #8D7051",
"&. c #8F7051",
"*. c #8E7151",
"=. c #8F7151",
"-. c #917150",
";. c #907151",
":. c #917250",
">. c #927250",
",. c #937250",
"<. c #907152",
"1. c #947250",
"2. c #957350",
"3. c #957454",
"4. c #9A7652",
"5. c #9A7752",
"6. c #9A7753",
"7. c #9D7853",
"8. c #9F7A54",
"9. c #9A775C",
"0. c #9D7A59",
"q. c #A07B54",
"w. c #93696C",
"e. c #986B6F",
"r. c #927866",
"t. c #926F7B",
"y. c #967270",
"u. c #997273",
"i. c #AD6761",
"p. c #A17C60",
"a. c #A77F63",
"s. c #B17F6E",
"d. c #C36763",
"f. c #A88157",
"g. c #A98158",
"h. c #AB8258",
"j. c #AC8359",
"k. c #AD8459",
"l. c #AE8559",
"z. c #AA835E",
"x. c #AB845F",
"c. c #B88B5D",
"v. c #BA8D5E",
"b. c #A48165",
"n. c #AC8661",
"m. c #AC8567",
"M. c #B28A6F",
"N. c #AF8179",
"B. c #AE837A",
"V. c #AF877C",
"C. c #B98573",
"Z. c #B28C71",
"A. c #B48F71",
"S. c #BE8877",
"D. c #C88F7F",
"F. c #D8897D",
"G. c #C1927D",
"H. c #C3967F",
"J. c #CA947E",
"K. c #C3997A",
"L. c #C1997C",
"P. c #636C82",
"I. c #656F84",
"U. c #A47A83",
"Y. c #7A8397",
"T. c #7D889D",
"R. c #7D8B9E",
"E. c #7E8B9E",
"W. c #9E8380",
"Q. c #A08581",
"!. c #A68682",
"~. c #AD8180",
"^. c #AC8185",
"/. c #AF8985",
"(. c #B68F85",
"). c #B28D88",
"_. c #B89480",
"`. c #B7968D",
"'. c #8091A5",
"]. c #C19B8E",
"[. c #DB9683",
"{. c #D39886",
"}. c #DB9C8C",
"|. c #CE9694",
" X c #D29C93",
".X c #D3A88B",
"XX c #DDA98F",
"oX c #DCA990",
"OX c #DCAF93",
"+X c #D9A99D",
"@X c #D8AF9E",
"#X c #E6A394",
"$X c #F6AE9F",
"%X c #E8B99D",
"&X c #FDB190",
"*X c #FEB491",
"=X c #FFB893",
"-X c #DBB2A1",
";X c #DDB4A3",
":X c #F9B8A5",
">X c #F8BCA8",
",X c #FBBEA8",
"<X c #FBBFA9",
"1X c #FCC2AB",
"2X c #FDC5AC",
"3X c #FDC6AD",
"4X c #FFCBB0",
/* pixels */
"                                                                ",
"                                                                ",
"                    i i i i i i i J U U                         ",
"                    i i i i i i i J U U                         ",
"                  i V [  .0.z.z.z.x.n.r.U U                     ",
"                i V &.2.g.c.v.v.v.v.k.3.$.G U                   ",
"                i D ,.2.k.v.v.v.j.7.6.2.2.,.F i                 ",
"                i D ,.2.k.v.v.v.f.2.2.2.2.,.D i                 ",
"            i i V  .,.2.k.v.g.8.6.2.2.2.2.,.D i                 ",
"            % % A +.&.&.6.q.6.2.2.2.2.2.2.,. .N i i             ",
"            o o B { { { +.,.,.,.,.,.,.,.,.&.+.S i i             ",
"            o o B ] ] ] +.&.&.&.,.,.&.&.&.&.+.S i i             ",
"            o o B ] ] ] { +.&.&.&.&.&.&.&.9.B.R i i             ",
"            o o B ] ] ] ] +.&.&.&.+.+.p.J.{.|.P                 ",
"            o o B ] ] ] ] {  .&.,.m.Z.M.<X<X+XU                 ",
"            o o B ] ] ] ] ] | &.,.K..XA.4X4X;XU                 ",
"            o o B ] s.S.G.H.b.&.a.XX%X_.Q.`.-XK                 ",
"            o o B ] }.$X:X3XOXL.oX1X4X].; ~ @Xe                 ",
"            o o M ' C.D.#X:X<X<X3X3X<X Xw.u.W.                  ",
"                i n m m y.~.~.~./.).^.U.U.t.                    ",
"                  o o o o o o o o % i i i i                     ",
"                  o o o * . * - > < f g e e                     ",
"                    o o , : 9 l ) c z 3 o o                     ",
"                    o o 2 1 ` d.i.Q h k o o                     ",
"                    o o 6 w V.=X=X(.W _ o o                     ",
"                    o o 9 d B.&X*X(.E b o o                     ",
"                    # # v x e.F.[.!.T 9 o o                     ",
"                    i i % 4 H K K ( / o                         ",
"                        o ^ R.'.'.'.I.o                         ",
"                        o ! Y.R.R.R.P.o                         ",
"                        o 6 8 8 j 7 o                           ",
"                          o o o o o                             "
};