/* XPM */
static char *_e9c4f52e63b42ef93e0fcf84738874fVQvoSfAvOuPyhgPH[] = {
/* columns rows colors chars-per-pixel */
"32 32 202 2 ",
"   c None",
".  c #3E3B4F",
"X  c #393950",
"o  c #3A3A50",
"O  c #3B3B50",
"+  c #3A3A51",
"@  c #3C3C52",
"#  c #3C3C53",
"$  c #3D3D55",
"%  c #3E3E54",
"&  c #3F3F56",
"*  c #403C4F",
"=  c #413C4F",
"-  c #483F4D",
";  c #4B3F4D",
":  c #4F3D4E",
">  c #513B4E",
",  c #5C3A4E",
"<  c #5D3E4C",
"1  c #533F55",
"2  c #5D3D50",
"3  c #723B4D",
"4  c #753C4D",
"5  c #3F4056",
"6  c #4F414C",
"7  c #4E404D",
"8  c #58434A",
"9  c #5A414D",
"0  c #5A414E",
"q  c #59434F",
"w  c #4E4556",
"e  c #404058",
"r  c #414159",
"t  c #424259",
"y  c #45455D",
"u  c #45455E",
"i  c #46465E",
"p  c #47475E",
"a  c #46465F",
"s  c #47475F",
"d  c #544657",
"f  c #51445C",
"g  c #584258",
"h  c #5F4A5B",
"j  c #68444F",
"k  c #644357",
"l  c #654558",
"z  c #714154",
"x  c #7A4352",
"c  c #7E4451",
"v  c #665252",
"b  c #6B5451",
"n  c #685557",
"m  c #705956",
"M  c #7D5E52",
"N  c #756255",
"B  c #766255",
"V  c #746156",
"C  c #7E6152",
"Z  c #7F6054",
"A  c #7F6754",
"S  c #786559",
"D  c #7E6A5C",
"F  c #494B62",
"G  c #4D4E67",
"H  c #4E5068",
"J  c #4F5069",
"K  c #555771",
"L  c #565872",
"P  c #565972",
"I  c #575A72",
"U  c #605667",
"Y  c #645A64",
"T  c #735365",
"R  c #785366",
"E  c #755B61",
"W  c #5F6076",
"Q  c #766266",
"!  c #606379",
"~  c #61657B",
"^  c #61657C",
"/  c #933E4C",
"(  c #83424C",
")  c #874551",
"_  c #89555D",
"`  c #846253",
"'  c #8A6552",
"]  c #836A53",
"[  c #8B6852",
"{  c #8B6952",
"}  c #8C6B51",
"|  c #886C52",
" . c #896E52",
".. c #8C6C51",
"X. c #8C6D51",
"o. c #8C6E51",
"O. c #8D6E51",
"+. c #8E6E51",
"@. c #8F6E51",
"#. c #8A6F56",
"$. c #8D7051",
"%. c #8F7051",
"&. c #8F7151",
"*. c #907151",
"=. c #917250",
"-. c #927250",
";. c #937250",
":. c #907152",
">. c #947250",
",. c #957350",
"<. c #957454",
"1. c #9A7652",
"2. c #9A7753",
"3. c #9D7853",
"4. c #9A775C",
"5. c #9D7A59",
"6. c #A07B54",
"7. c #A77F57",
"8. c #956660",
"9. c #93696C",
"0. c #986B6F",
"q. c #927866",
"w. c #926F7B",
"e. c #967270",
"r. c #997273",
"t. c #AB6761",
"y. c #A17C60",
"u. c #B17F6E",
"i. c #A98158",
"p. c #AB8258",
"a. c #AD8459",
"s. c #AE8559",
"d. c #AA835E",
"f. c #AB845F",
"g. c #B88B5D",
"h. c #BA8D5E",
"j. c #A48165",
"k. c #AC8661",
"l. c #AA8064",
"z. c #AC8567",
"x. c #B28A6F",
"c. c #AF8179",
"v. c #AE837A",
"b. c #AF877C",
"n. c #B98573",
"m. c #B28C71",
"M. c #B48F71",
"N. c #BE8877",
"B. c #C88F7F",
"V. c #C49076",
"C. c #C1927D",
"Z. c #C3967F",
"A. c #CA947E",
"S. c #C3997A",
"D. c #636C82",
"F. c #656F84",
"G. c #A47A83",
"H. c #7A8397",
"J. c #7D889D",
"K. c #7C8B9E",
"L. c #7D8B9E",
"P. c #9E8380",
"I. c #A08581",
"U. c #A68682",
"Y. c #AD8180",
"T. c #AC8185",
"R. c #AF8A86",
"E. c #B68F85",
"W. c #B28D88",
"Q. c #B89480",
"!. c #B2928A",
"~. c #B7968D",
"^. c #8091A5",
"/. c #C19B8E",
"(. c #DC9784",
"). c #D39886",
"_. c #DB9C8C",
"`. c #CE9694",
"'. c #D29C93",
"]. c #DFA48A",
"[. c #D3A88B",
"{. c #DDA98F",
"}. c #DFAB92",
"|. c #DCAF93",
" X c #D9A99D",
".X c #D8AF9E",
"XX c #E6A394",
"oX c #F6AE9F",
"OX c #E8B99D",
"+X c #FEB591",
"@X c #FFB893",
"#X c #DBB2A1",
"$X c #DDB4A3",
"%X c #F9B8A5",
"&X c #FABBA7",
"*X c #F8BCA8",
"=X c #FBBEA8",
"-X c #FBBFA9",
";X c #FCC2AB",
":X c #FDC5AD",
">X c #FDC6AD",
",X c #FFCBB0",
/* pixels */
"                                                                ",
"                                                                ",
"                        P P G u u u u u u u                     ",
"                        P P G u u u u u u u                     ",
"                    P P q.k.f.d.d.d.5.| ] V u                   ",
"                  P D #.<.s.h.h.h.h.g.p.,.&.V u                 ",
"                u S ;.,.,.1.3.3.p.h.h.s.,.;.A u                 ",
"                u A ;.,.,.,.,.,.7.h.h.s.,.;.A u                 ",
"                u A ;.,.,.,.,.,.1.p.h.s.,.;.| V u u             ",
"            u u m | ;.,.,.,.,.,.,.1.6.1.&.&.o.C & &             ",
"            u u Z o.&.;.;.;.;.,.;.;.;.o.[ [ [ M X X             ",
"            u u Z o.&.&.&.&.;.,.;.&.&.o.' ' ' M X X             ",
"            u u Y c.4.&.&.&.&.;.&.&.o.[ ' ' ' M X X             ",
"                K `.).A.y.o.o.;.&.&.o.' ' ' ' M X X             ",
"                P  X=X=Xx.m.z.,.;.o.[ ' ' ' ' M X X             ",
"                P $X,X,XM.[.S.,.;.} ' ' ' ' ' M X X             ",
"                H #X~.I.Q.OX{.V.l.j.Z.C.N.u.' M X X             ",
"                r .XQ ; /.,X;X&X}.|.>X&XoX_.' M X X             ",
"                  P.r.9.'.=X>X,X>X=X&XXXB.n.` n X X             ",
"                    w.G.G.T.W.!.R.Y.Y.e.b b v u                 ",
"                    u u u u & X X X X X X X X                   ",
"                    r r g f 1 , > = . = X X X                   ",
"                    X X 4 k z / ( q : < X X                     ",
"                    X X j h E 8.t._ 2 3 X X                     ",
"                    X X ) R E.@X@Xb.w 6 X X                     ",
"                    X X c T E.@X+Xc.d q X X                     ",
"                    X X q U U.].(.0.l x @ @                     ",
"                        X ~ ^ H H F 5 & u u                     ",
"                        X F.^.^.^.L.! X                         ",
"                        X D.L.L.L.H.W X                         ",
"                          X ; 8 8 8 6 X                         ",
"                            X X X X X                           "
};