/* XPM */
static char *_3cd25118cbd48dbca618dce2b826bb9ccebsj6FTzAlAK1N[] = {
/* columns rows colors chars-per-pixel */
"32 32 3 1 ",
"  c #4FA4B8",
". c #92E8C0",
"X c #F5FFE8",
/* pixels */
"      XX..  ..  ..  ..  ..  ..  ",
"      XX..  ..  ..  ..  ..  ..  ",
"    XX..XX                      ",
"    XX..XX                      ",
"  XX......XX                    ",
"  XX......XX                    ",
"XX....  ....XXXX  XX      XX  XX",
"XX....  ....XXXX  XX      XX  XX",
"....  ..  ......XX  ..  ..  XX..",
"....  ..  ......XX  ..  ..  XX..",
"..  ..  ..  ..  ..            XX",
"..  ..  ..  ..  ..            XX",
"XX                          XX..",
"XX                          XX..",
"..XX                      XX....",
"..XX                      XX....",
"....XXXX  XX      XX  XXXX....  ",
"....XXXX  XX      XX  XXXX....  ",
"  ......XX  ..  ..  XX......  ..",
"  ......XX  ..  ..  XX......  ..",
"..  ..  ..          ..  ..  ..  ",
"..  ..  ..          ..  ..  ..  ",
"                  XX            ",
"                  XX            ",
"                XX..XX          ",
"                XX..XX          ",
"              XX......XX        ",
"              XX......XX        ",
"      XX  XXXX....  ....XXXX  XX",
"      XX  XXXX....  ....XXXX  XX",
"..  ..  XX......  ..  ......XX  ",
"..  ..  XX......  ..  ......XX  "
};