/* XPM */
static char *_73f599992fa48029116108ce3a818e9MU2e2GdbMgJZ9J26[] = {
/* columns rows colors chars-per-pixel */
"32 32 3 1 ",
"  c #4FA4B8",
". c #92E8C0",
"X c #F5FFE8",
/* pixels */
"..  ..  ..  ..        XX..  ..  ",
"..  ..  ..  ..        XX..  ..  ",
"                    XX..XX      ",
"                    XX..XX      ",
"                  XX......XX    ",
"                  XX......XX    ",
"  XX      XX  XXXX....  ....XXXX",
"  XX      XX  XXXX....  ....XXXX",
"XX  ..  ..  XX......  ..  ......",
"XX  ..  ..  XX......  ..  ......",
"..            XX..  ..  ..  ..  ",
"..            XX..  ..  ..  ..  ",
"            XX..XX              ",
"            XX..XX              ",
"          XX......XX            ",
"          XX......XX            ",
"  XX  XXXX....  ....XXXX  XX    ",
"  XX  XXXX....  ....XXXX  XX    ",
"..  XX......  ..  ......XX  ..  ",
"..  XX......  ..  ......XX  ..  ",
"    ..  ..  ..  ..  ..  ..      ",
"    ..  ..  ..  ..  ..  ..      ",
"  XX                            ",
"  XX                            ",
"XX..XX                          ",
"XX..XX                          ",
"......XX                      XX",
"......XX                      XX",
"..  ....XXXX  XX      XX  XXXX..",
"..  ....XXXX  XX      XX  XXXX..",
"  ..  ......XX  ..  ..  XX......",
"  ..  ......XX  ..  ..  XX......"
};